<svg xmlns="http://www.w3.org/2000/svg" xmlns:xlink="http://www.w3.org/1999/xlink" width="500" zoomAndPan="magnify" viewBox="0 0 375 374.999991" height="500" preserveAspectRatio="xMidYMid meet" version="1.0"><defs><clipPath id="558f672fe4"><path d="M 139 6.269531 L 243 6.269531 L 243 344 L 139 344 Z M 139 6.269531 " clip-rule="nonzero"/></clipPath><clipPath id="9a9bdfc612"><path d="M 178 103 L 337.765625 103 L 337.765625 368.519531 L 178 368.519531 Z M 178 103 " clip-rule="nonzero"/></clipPath><clipPath id="1273cb9fb8"><path d="M 61.765625 131 L 170 131 L 170 367 L 61.765625 367 Z M 61.765625 131 " clip-rule="nonzero"/></clipPath></defs><g clip-path="url(#558f672fe4)"><path fill="#ed3237" d="M 168.003906 343.625 C 136.511719 308.808594 134.035156 277.480469 146.269531 243.179688 C 159.503906 206.085938 182.699219 185.726562 190.167969 146.34375 C 194.023438 126.03125 195.214844 109.410156 194.160156 94.054688 L 194.132812 93.621094 C 192.109375 65.339844 182.429688 41.296875 167.65625 6.261719 C 217.554688 72.855469 260.902344 116.191406 233.589844 182.359375 C 210.644531 237.949219 148.539062 283.019531 167.996094 343.621094 Z M 168.003906 343.625 " fill-opacity="1" fill-rule="evenodd"/></g><g clip-path="url(#9a9bdfc612)"><path fill="#f0a237" d="M 179.957031 310.117188 C 188.929688 247.21875 288.542969 201.507812 247.746094 103.390625 C 300.234375 122.84375 337.632812 173.304688 337.632812 232.480469 C 337.632812 298.425781 291.191406 353.539062 229.183594 366.992188 C 189.582031 375.589844 174.75 346.636719 179.949219 310.117188 Z M 179.957031 310.117188 " fill-opacity="1" fill-rule="evenodd"/></g><g clip-path="url(#1273cb9fb8)"><path fill="#f16736" d="M 132.855469 238.410156 C 117.128906 282.480469 125.894531 318.292969 157.433594 353.164062 L 169.839844 366.886719 C 108.085938 353.242188 61.894531 298.246094 61.894531 232.480469 C 61.894531 192.433594 79.023438 156.378906 106.367188 131.222656 C 72.351562 219.230469 88.085938 257.285156 144.878906 211.84375 C 140.375 220.273438 136.25 228.894531 132.855469 238.417969 Z M 132.855469 238.410156 " fill-opacity="1" fill-rule="evenodd"/></g><path fill="#f0a237" d="M 157.328125 176.699219 C 156.75 177.71875 156.132812 178.714844 155.484375 179.6875 C 154.835938 180.664062 154.15625 181.609375 153.445312 182.53125 C 152.734375 183.449219 152 184.339844 151.234375 185.195312 C 150.46875 186.050781 149.679688 186.875 148.867188 187.660156 C 148.054688 188.445312 147.222656 189.191406 146.371094 189.894531 C 145.519531 190.601562 144.652344 191.265625 143.769531 191.886719 C 142.886719 192.507812 141.996094 193.082031 141.089844 193.609375 C 140.183594 194.136719 139.269531 194.617188 138.351562 195.050781 C 137.433594 195.480469 136.511719 195.863281 135.585938 196.195312 C 134.660156 196.523438 133.738281 196.804688 132.816406 197.027344 C 131.898438 197.253906 130.980469 197.429688 130.074219 197.550781 C 129.164062 197.667969 128.269531 197.734375 127.382812 197.746094 C 126.496094 197.761719 125.625 197.71875 124.765625 197.625 C 123.910156 197.527344 123.070312 197.378906 122.253906 197.175781 C 121.433594 196.976562 120.636719 196.722656 119.867188 196.414062 C 119.09375 196.105469 118.347656 195.75 117.628906 195.339844 C 116.910156 194.933594 116.21875 194.472656 115.5625 193.96875 C 114.902344 193.460938 114.277344 192.90625 113.683594 192.308594 C 113.09375 191.707031 112.539062 191.066406 112.019531 190.378906 C 111.5 189.691406 111.019531 188.964844 110.574219 188.195312 C 110.132812 187.429688 109.734375 186.625 109.371094 185.78125 C 109.011719 184.941406 108.695312 184.066406 108.417969 183.164062 C 108.144531 182.257812 107.914062 181.320312 107.726562 180.359375 C 107.539062 179.398438 107.398438 178.410156 107.300781 177.402344 C 107.203125 176.390625 107.148438 175.363281 107.140625 174.316406 C 107.136719 173.269531 107.171875 172.207031 107.257812 171.132812 C 107.339844 170.058594 107.46875 168.976562 107.644531 167.882812 C 107.816406 166.792969 108.035156 165.695312 108.296875 164.597656 C 108.558594 163.5 108.863281 162.40625 109.210938 161.3125 C 109.554688 160.214844 109.945312 159.128906 110.375 158.050781 C 110.804688 156.972656 111.273438 155.902344 111.78125 154.851562 C 112.289062 153.796875 112.832031 152.757812 113.414062 151.738281 C 113.996094 150.71875 114.609375 149.722656 115.257812 148.75 C 115.90625 147.773438 116.585938 146.828125 117.296875 145.90625 C 118.007812 144.988281 118.746094 144.097656 119.511719 143.242188 C 120.277344 142.386719 121.0625 141.566406 121.875 140.78125 C 122.6875 139.996094 123.519531 139.25 124.371094 138.542969 C 125.222656 137.835938 126.089844 137.171875 126.972656 136.550781 C 127.855469 135.933594 128.75 135.355469 129.65625 134.828125 C 130.558594 134.300781 131.472656 133.820312 132.390625 133.386719 C 133.3125 132.957031 134.234375 132.574219 135.160156 132.246094 C 136.082031 131.914062 137.003906 131.636719 137.925781 131.410156 C 138.847656 131.183594 139.761719 131.007812 140.667969 130.890625 C 141.578125 130.769531 142.476562 130.703125 143.363281 130.691406 C 144.25 130.679688 145.121094 130.71875 145.976562 130.816406 C 146.835938 130.910156 147.671875 131.058594 148.492188 131.261719 C 149.308594 131.464844 150.105469 131.71875 150.878906 132.023438 C 151.652344 132.332031 152.398438 132.6875 153.117188 133.097656 C 153.835938 133.507812 154.523438 133.964844 155.183594 134.472656 C 155.839844 134.976562 156.464844 135.53125 157.058594 136.128906 C 157.652344 136.730469 158.207031 137.375 158.726562 138.058594 C 159.246094 138.746094 159.726562 139.476562 160.167969 140.242188 C 160.609375 141.011719 161.011719 141.816406 161.371094 142.65625 C 161.730469 143.496094 162.050781 144.371094 162.324219 145.277344 C 162.597656 146.183594 162.832031 147.117188 163.019531 148.078125 C 163.203125 149.042969 163.347656 150.027344 163.445312 151.039062 C 163.542969 152.046875 163.59375 153.074219 163.601562 154.121094 C 163.609375 155.171875 163.570312 156.230469 163.488281 157.304688 C 163.402344 158.378906 163.273438 159.464844 163.101562 160.554688 C 162.925781 161.648438 162.710938 162.742188 162.449219 163.839844 C 162.1875 164.9375 161.882812 166.035156 161.535156 167.128906 C 161.1875 168.222656 160.800781 169.308594 160.371094 170.386719 C 159.941406 171.46875 159.472656 172.535156 158.964844 173.589844 C 158.457031 174.644531 157.910156 175.679688 157.328125 176.699219 Z M 157.328125 176.699219 " fill-opacity="1" fill-rule="nonzero"/></svg>